<svg xmlns="http://www.w3.org/2000/svg" width="32" height="32" viewBox="0 0 32 32">
  <!-- Background Circle -->
  <circle cx="16" cy="16" r="15" fill="#f1f8ff" stroke="#0d6efd" stroke-width="1"/>
  
  <!-- Brain Icon -->
  <path d="M16 7 C 10 7, 8 11, 8 15 C 8 18, 10 20, 13 20 C 14.5 20, 15.5 19, 16 18 C 16.5 19, 17.5 20, 19 20 C 22 20, 24 18, 24 15 C 24 11, 22 7, 16 7 Z" fill="#0d6efd" opacity="0.8"/>
  
  <!-- Heart Icon (representing emotions) -->
  <path d="M16 22 C 14.5 21, 11.5 21, 10 22 C 8.5 23, 8.5 26, 16 28 C 23.5 26, 23.5 23, 22 22 C 20.5 21, 17.5 21, 16 22 Z" fill="#ff6384" opacity="0.8"/>
</svg>